<?xml version="1.0" encoding="UTF-8"?>
<svg xmlns="http://www.w3.org/2000/svg" xmlns:xlink="http://www.w3.org/1999/xlink" width="50pt" height="50pt" viewBox="0 0 50 50" version="1.1">
<g id="surface633185">
<path style=" stroke:none;fill-rule:nonzero;fill:rgb(0%,0%,0%);fill-opacity:1;" d="M 25 2.34375 C 12.5 2.34375 2.34375 12.5 2.34375 25 C 2.34375 37.5 12.5 47.65625 25 47.65625 C 37.5 47.65625 47.65625 37.5 47.65625 25 C 47.65625 15.46875 41.640625 6.875 32.65625 3.671875 C 30.195312 2.773438 27.617188 2.34375 25 2.34375 Z M 25 4.6875 C 27.34375 4.6875 29.648438 5.078125 31.875 5.859375 C 31.992188 5.898438 32.109375 5.9375 32.1875 5.976562 L 32.265625 8.828125 C 32.265625 9.882812 31.640625 10.859375 30.664062 11.289062 C 28.515625 12.226562 26.367188 11.71875 25.46875 14.179688 C 24.726562 16.054688 26.679688 21.09375 29.0625 21.09375 C 32.070312 21.09375 33.515625 15.039062 34.414062 15.039062 C 35 15.039062 35.898438 16.875 36.953125 18.242188 C 37.65625 19.179688 38.75 19.6875 39.921875 19.6875 L 41.914062 19.6875 L 44.765625 20.351562 C 45.117188 21.875 45.3125 23.4375 45.3125 25 C 45.3125 36.210938 36.210938 45.3125 25 45.3125 C 23.398438 45.3125 21.835938 45.117188 20.351562 44.765625 L 20.351562 42.148438 L 19.375 41.171875 C 18.398438 40.195312 20.390625 38.554688 20.9375 36.484375 C 22.460938 30.625 17.382812 30.390625 17.226562 29.101562 C 17.070312 27.65625 18.945312 26.5625 20.078125 25.429688 C 21.210938 24.296875 21.5625 22.539062 20.976562 21.523438 C 19.140625 18.125 14.6875 19.921875 14.257812 23.476562 C 14.023438 25.625 12.734375 27.8125 11.640625 28.945312 C 10.546875 30.039062 8.398438 29.453125 7.8125 27.851562 C 7.148438 26.054688 9.453125 25.390625 9.101562 23.085938 C 9.023438 22.460938 8.359375 22.148438 7.539062 22.03125 L 4.84375 22.109375 C 6.289062 12.265625 14.765625 4.6875 25 4.6875 Z M 38.46875 27.320312 C 37.441406 27.375 36.011719 27.886719 34.0625 29.21875 C 32.578125 30.234375 29.960938 28.125 28.828125 29.6875 C 27.734375 31.210938 33.476562 35.859375 35.390625 34.960938 C 38.632812 33.4375 40.742188 30.273438 40.742188 29.101562 C 40.765625 28.394531 40.179688 27.226562 38.46875 27.320312 Z M 38.46875 27.320312 "/>
</g>
</svg>
