<svg xmlns="http://www.w3.org/2000/svg" viewBox="0 0 50 50" width="50" height="50">
	<style>
		tspan { white-space:pre }
		.shp0 { fill: #000000 } 
	</style>
	<path id="Layer" class="shp0" d="M25 5C36.97 5 46.67 13.21 46.67 23.33C46.67 28.95 43.68 33.96 38.98 37.33C38.86 39.89 39.26 43.42 42.79 45.05C42.79 45.05 42.79 45.05 42.79 45.05C42.79 45.05 42.79 45.05 42.79 45.05C42.79 45.05 42.79 45.05 42.79 45.05C42.8 45.05 42.8 45.06 42.8 45.06C42.87 45.09 42.95 45.13 43.01 45.18C43.08 45.23 43.14 45.29 43.19 45.36C43.23 45.43 43.27 45.51 43.3 45.59C43.32 45.67 43.33 45.75 43.33 45.83C43.33 45.94 43.31 46.05 43.27 46.15C43.23 46.25 43.17 46.35 43.09 46.42C43.01 46.5 42.92 46.56 42.82 46.6C42.72 46.65 42.61 46.67 42.5 46.67C42.48 46.67 42.46 46.66 42.44 46.66C42.44 46.66 42.44 46.66 42.44 46.66C42.44 46.66 42.44 46.66 42.43 46.66C42.43 46.66 42.43 46.66 42.43 46.66C42.43 46.66 42.43 46.66 42.43 46.66C38.37 46.64 34.93 44.45 32.55 42.13C31.8 41.39 30.75 41.03 29.71 41.23C28.2 41.52 26.62 41.67 25 41.67C13.03 41.67 3.33 33.46 3.33 23.33C3.33 13.21 13.03 5 25 5Z" />
</svg>