<svg xmlns="http://www.w3.org/2000/svg" viewBox="0 0 50 50" width="50" height="50">
	<style>
		tspan { white-space:pre }
		.shp0 { fill: #000000 } 
	</style>
	<g id="Layer">
		<path id="Layer" class="shp0" d="M41.79 31.26C39.34 31.26 36.94 30.87 34.66 30.12C33.54 29.74 32.17 30.09 31.49 30.79L26.99 34.18C21.77 31.4 18.56 28.19 15.81 23.01L19.11 18.63C19.97 17.77 20.27 16.53 19.91 15.35C19.15 13.06 18.77 10.66 18.77 8.21C18.77 6.44 17.33 5 15.56 5L8.21 5C6.44 5 5 6.44 5 8.21C5 28.5 21.5 45 41.79 45C43.56 45 45 43.56 45 41.79L45 34.47C45 32.7 43.56 31.26 41.79 31.26Z" />
	</g>
</svg>